# xmcd
#
# Track frame offsets:
#	150
#	19047
#	35875
#	52680
#	68905
#	84565
#	99215
#	115872
#	131655
#	147332
#	165837
#	181825
#	196625
#	212540
#	227592
#	248057
#	270892
#	284527
#
# Disc length: 4006 seconds
#
# Revision: 0
# Processed by: cddbd v1.5.2PL0 Copyright (c) Steve Scherf et al.
# Submitted via: EasyCDDAExtractor 15.3.0.1
#
DISCID=e60fa412
DTITLE=Varios - Hits Collection 2001
DYEAR=2001
DGENRE=Euro-House
TTITLE0=Too Much of Heaven - Eiffel 65
TTITLE1=Groovejet - Spiller
TTITLE2=Kernkraft 400 - Zombie Nation
TTITLE3=Shalala lala - Vengaboys
TTITLE4=Azzurro - Biorello
TTITLE5=The Mariachi - Technotronic
TTITLE6=I'll Take you There - Tony di Bart
TTITLE7=Will i Ever - Alice Deejay
TTITLE8=Ring my Bell - Ann Lee
TTITLE9=U Gotta Be - Alex Party
TTITLE10=The Bomb - Love Connection
TTITLE11=Up and Down - Billy More
TTITLE12=Down Down Down - Gambafreaks
TTITLE13=Eeah Dada - La Bionda
TTITLE14=Hear That Dj Play - RMN Feat. Edwin Starr
TTITLE15=Everybody Get Up - Double X Voice
TTITLE16=Lifting Up My Life - Anita
TTITLE17=Read My Lips - The Beatshop
EXTD=
EXTT0=
EXTT1=
EXTT2=
EXTT3=
EXTT4=
EXTT5=
EXTT6=
EXTT7=
EXTT8=
EXTT9=
EXTT10=
EXTT11=
EXTT12=
EXTT13=
EXTT14=
EXTT15=
EXTT16=
EXTT17=
PLAYORDER=
